<svg xmlns="http://www.w3.org/2000/svg" xmlns:xlink="http://www.w3.org/1999/xlink" viewBox="0 0 133.93 60.41"><defs><style>.cls-1{fill:none;}.cls-2{clip-path:url(#clip-path);}.cls-3{fill:url(#Gradiente_sem_nome_9);}.cls-4{clip-path:url(#clip-path-2);}.cls-5{fill:#00aee0;}.cls-6{fill:#747675;}</style><clipPath id="clip-path" transform="translate(-5.75 -4.64)"><path class="cls-1" d="M56,4.64a1.67,1.67,0,0,0-1.67,1.67V25.05a1.67,1.67,0,0,0,3.33,0V8H74.3v5.14h5.53l.33.33V36.9H51.68L44.74,6a1.66,1.66,0,0,0-3.24,0l-10,43.47L21,17.23a1.66,1.66,0,0,0-1.47-1.08h-.1a1.69,1.69,0,0,0-1.5,1L12.8,35.53H7.42a1.67,1.67,0,1,0,0,3.33h6.45a1.66,1.66,0,0,0,1.51-1l4.11-15,10.6,33.21a1.67,1.67,0,0,0,1.56,1.08h.1a1.66,1.66,0,0,0,1.52-1.26L43,13.57l5.68,25.36a1.66,1.66,0,0,0,1.63,1.3H81.82a1.67,1.67,0,0,0,1.67-1.67V12.76A1.66,1.66,0,0,0,83,11.58L76.55,5.13a1.66,1.66,0,0,0-1.18-.49Z"></path></clipPath><linearGradient id="Gradiente_sem_nome_9" x1="-423.91" y1="7681.08" x2="-422.91" y2="7681.08" gradientTransform="matrix(77.74, 0, 0, -77.74, 32953.71, 597136.9)" gradientUnits="userSpaceOnUse"><stop offset="0" stop-color="#76bfad"></stop><stop offset="0.1" stop-color="#70bead"></stop><stop offset="0.23" stop-color="#5fbaad"></stop><stop offset="0.39" stop-color="#44b4ae"></stop><stop offset="0.45" stop-color="#37b1ae"></stop><stop offset="0.63" stop-color="#20a8c2"></stop><stop offset="0.86" stop-color="#099fd7"></stop><stop offset="1" stop-color="#009cde"></stop></linearGradient><clipPath id="clip-path-2" transform="translate(-5.75 -4.64)"><rect class="cls-1" width="146.02" height="69.26"></rect></clipPath></defs><title>Ativo 1</title><g id="Camada_2" data-name="Camada 2"><g id="Camada_1-2" data-name="Camada 1"><g class="cls-2"><rect class="cls-3" width="77.74" height="52.53"></rect></g><g class="cls-4"><path class="cls-5" d="M62.47,26.71a1.67,1.67,0,1,1,0-3.33h12.9a1.67,1.67,0,1,1,0,3.33Z" transform="translate(-5.75 -4.64)"></path><path class="cls-5" d="M62.47,33.16a1.67,1.67,0,1,1,0-3.33h12.9a1.67,1.67,0,1,1,0,3.33Z" transform="translate(-5.75 -4.64)"></path><path class="cls-5" d="M62.47,20.26a1.67,1.67,0,1,1,0-3.33h12.9a1.67,1.67,0,1,1,0,3.33Z" transform="translate(-5.75 -4.64)"></path><path class="cls-6" d="M64.94,48.89a6.88,6.88,0,0,1,1.13,4.2V64.45a.3.3,0,0,1-.34.33H63.2a.3.3,0,0,1-.34-.33V53.32a3.91,3.91,0,0,0-.6-2.31,1.92,1.92,0,0,0-1.62-.82,2.06,2.06,0,0,0-1.72.82,3.65,3.65,0,0,0-.64,2.28V64.45c0,.22-.11.33-.34.33H55.41a.29.29,0,0,1-.33-.33V53.32A3.84,3.84,0,0,0,54.47,51a1.9,1.9,0,0,0-1.62-.82,2.06,2.06,0,0,0-1.72.82,3.72,3.72,0,0,0-.64,2.28V64.45a.29.29,0,0,1-.33.33H47.63a.3.3,0,0,1-.34-.33V48a.3.3,0,0,1,.34-.33h2.53a.29.29,0,0,1,.33.33v.85a.1.1,0,0,0,.06.1s.07,0,.11,0a4.42,4.42,0,0,1,1.55-1.12A4.63,4.63,0,0,1,54,47.39a3.81,3.81,0,0,1,3.67,2.26.08.08,0,0,0,.1.05s.08-.06.1-.15a4.06,4.06,0,0,1,1.72-1.65,4.89,4.89,0,0,1,2.16-.51,3.8,3.8,0,0,1,3.22,1.5" transform="translate(-5.75 -4.64)"></path><path class="cls-6" d="M79.28,57.54H71.66c-.09,0-.13,0-.13.13v1.82a2.92,2.92,0,0,0,.67,2,2.19,2.19,0,0,0,1.75.77,2.27,2.27,0,0,0,1.59-.57,2.61,2.61,0,0,0,.81-1.48.36.36,0,0,1,.37-.27l2.49.13a.33.33,0,0,1,.26.11.26.26,0,0,1,0,.23,5.05,5.05,0,0,1-1.67,3.42,6.7,6.7,0,0,1-8-.22,5.06,5.06,0,0,1-1.53-3.87v-7a5.16,5.16,0,0,1,1.53-3.88,6.53,6.53,0,0,1,8.28,0,5.19,5.19,0,0,1,1.52,3.88V57.2a.3.3,0,0,1-.34.34M72.2,50.93a2.92,2.92,0,0,0-.67,2v1.79c0,.09,0,.13.13.13h4.62c.09,0,.13,0,.13-.13V52.92a2.92,2.92,0,0,0-.67-2A2.28,2.28,0,0,0,74,50.16a2.22,2.22,0,0,0-1.75.77" transform="translate(-5.75 -4.64)"></path><path class="cls-6" d="M89.93,41.19h2.56a.3.3,0,0,1,.34.34V64.45a.3.3,0,0,1-.34.33H89.93c-.23,0-.34-.11-.34-.33v-.78a.12.12,0,0,0,0-.1s-.07,0-.12,0a3.88,3.88,0,0,1-1.51,1.1,4.52,4.52,0,0,1-1.72.35,4.27,4.27,0,0,1-3.46-1.45,5.76,5.76,0,0,1-1.23-3.87v-7a5.72,5.72,0,0,1,1.25-3.91,4.33,4.33,0,0,1,3.44-1.42,4.61,4.61,0,0,1,1.73.35,4,4,0,0,1,1.5,1.1s.09.06.12,0a.14.14,0,0,0,0-.11V41.53a.3.3,0,0,1,.34-.34m-1,9.74a2.19,2.19,0,0,0-1.74-.77,2.24,2.24,0,0,0-1.75.77,2.92,2.92,0,0,0-.67,2v6.61a2.87,2.87,0,0,0,.67,2,2.25,2.25,0,0,0,1.75.75,2.21,2.21,0,0,0,1.74-.75,2.91,2.91,0,0,0,.66-2V52.92a3,3,0,0,0-.66-2" transform="translate(-5.75 -4.64)"></path><path class="cls-6" d="M104.69,48.94a6,6,0,0,1,1.11,3.88V64.45a.29.29,0,0,1-.33.33h-1.11c-.23,0-.34-.11-.34-.33V53a4.52,4.52,0,0,0-.79-2.83,2.68,2.68,0,0,0-2.25-1,2.83,2.83,0,0,0-2.34,1.07,4.67,4.67,0,0,0-.86,3V64.45a.29.29,0,0,1-.33.33H96.33a.29.29,0,0,1-.33-.33V48.13a.29.29,0,0,1,.33-.33h1.12a.29.29,0,0,1,.33.33v1.32c0,.07,0,.1.07.1s.08,0,.1-.1a4,4,0,0,1,3.57-1.89,3.84,3.84,0,0,1,3.17,1.38" transform="translate(-5.75 -4.64)"></path><path class="cls-6" d="M110.22,63.66A5,5,0,0,1,108.84,60V52.58a5,5,0,0,1,1.38-3.64,4.82,4.82,0,0,1,3.61-1.41,4.77,4.77,0,0,1,5,5V60a4.76,4.76,0,0,1-5,5,4.84,4.84,0,0,1-3.61-1.39m6-1.18a3.65,3.65,0,0,0,.92-2.55V52.68a3.65,3.65,0,0,0-.92-2.57,3,3,0,0,0-2.35-1,2.93,2.93,0,0,0-2.31,1,3.68,3.68,0,0,0-.9,2.57v7.25a3.68,3.68,0,0,0,.9,2.55,3,3,0,0,0,2.31,1,3,3,0,0,0,2.35-1" transform="translate(-5.75 -4.64)"></path><path class="cls-6" d="M127.27,49.21h-2.69a.13.13,0,0,0-.14.14V60.2a3.64,3.64,0,0,0,.57,2.34,2.3,2.3,0,0,0,1.82.66h.34a.3.3,0,0,1,.34.34v.91c0,.22-.11.33-.34.33h-.67a4.12,4.12,0,0,1-2.85-.87,4.36,4.36,0,0,1-1-3.27V49.35a.13.13,0,0,0-.14-.14h-1.38a.29.29,0,0,1-.33-.33v-.75a.3.3,0,0,1,.33-.34h1.38c.09,0,.14,0,.14-.13V43.89a.3.3,0,0,1,.34-.34h1.07a.3.3,0,0,1,.34.34v3.77c0,.09,0,.13.14.13h2.69a.3.3,0,0,1,.34.34v.75c0,.22-.11.33-.34.33" transform="translate(-5.75 -4.64)"></path><path class="cls-6" d="M139.34,56.93h-7.75a.13.13,0,0,0-.14.14v2.86a3.68,3.68,0,0,0,.9,2.55,3,3,0,0,0,2.3,1,3.08,3.08,0,0,0,2-.71,3.35,3.35,0,0,0,1.11-1.85.38.38,0,0,1,.37-.31l1.08.07a.4.4,0,0,1,.24.07.18.18,0,0,1,.06.2v.14A4.7,4.7,0,0,1,137.92,64a4.93,4.93,0,0,1-3.27,1.06,4.84,4.84,0,0,1-3.6-1.39A5,5,0,0,1,129.67,60V52.58a5,5,0,0,1,1.38-3.64,4.81,4.81,0,0,1,3.6-1.41,4.9,4.9,0,0,1,3.65,1.41,5.05,5.05,0,0,1,1.38,3.64v4a.3.3,0,0,1-.34.34m-7-6.82a3.68,3.68,0,0,0-.9,2.57v2.57a.12.12,0,0,0,.14.13h6.16a.12.12,0,0,0,.14-.13V52.68a3.72,3.72,0,0,0-.89-2.57,3,3,0,0,0-2.35-1,2.92,2.92,0,0,0-2.3,1" transform="translate(-5.75 -4.64)"></path></g></g></g></svg>